<svg viewBox="0 0 15 15" xmlns="http://www.w3.org/2000/svg">
<path d="M9.39583 4.58333C9.39583 5.63037 8.54704 6.47917 7.5 6.47917V7.35417C9.03029 7.35417 10.2708 6.11362 10.2708 4.58333H9.39583ZM7.5 6.47917C6.45296 6.47917 5.60417 5.63037 5.60417 4.58333H4.72917C4.72917 6.11362 5.96971 7.35417 7.5 7.35417V6.47917ZM5.60417 4.58333C5.60417 3.53629 6.45296 2.6875 7.5 2.6875V1.8125C5.96971 1.8125 4.72917 3.05304 4.72917 4.58333H5.60417ZM7.5 2.6875C8.54704 2.6875 9.39583 3.53629 9.39583 4.58333H10.2708C10.2708 3.05304 9.03029 1.8125 7.5 1.8125V2.6875ZM11.1458 10.7083C11.1458 11.0171 10.8841 11.4145 10.1917 11.7607C9.52544 12.0938 8.57439 12.3125 7.5 12.3125V13.1875C8.68078 13.1875 9.7714 12.9491 10.583 12.5433C11.3685 12.1506 12.0208 11.5271 12.0208 10.7083H11.1458ZM7.5 12.3125C6.42561 12.3125 5.47457 12.0938 4.8083 11.7607C4.11587 11.4145 3.85417 11.0171 3.85417 10.7083H2.97917C2.97917 11.5271 3.63155 12.1506 4.41699 12.5433C5.22861 12.9491 6.31923 13.1875 7.5 13.1875V12.3125ZM3.85417 10.7083C3.85417 10.3995 4.11587 10.0022 4.8083 9.65597C5.47457 9.32284 6.42561 9.10417 7.5 9.10417V8.22917C6.31923 8.22917 5.22861 8.46754 4.41699 8.87334C3.63155 9.26607 2.97917 9.88955 2.97917 10.7083H3.85417ZM7.5 9.10417C8.57439 9.10417 9.52544 9.32284 10.1917 9.65597C10.8841 10.0022 11.1458 10.3995 11.1458 10.7083H12.0208C12.0208 9.88955 11.3685 9.26607 10.583 8.87334C9.7714 8.46754 8.68078 8.22917 7.5 8.22917V9.10417Z" />
</svg>
